<?xml version="1.0" encoding="UTF-8" standalone="no"?>
<svg width="201px" height="36px" viewBox="0 0 201 36" version="1.1" xmlns="http://www.w3.org/2000/svg" xmlns:xlink="http://www.w3.org/1999/xlink" xmlns:sketch="http://www.bohemiancoding.com/sketch/ns">
    <title>Untitled 2</title>
    <description>Created with Sketch (http://www.bohemiancoding.com/sketch)</description>
    <defs>
        <linearGradient x1="49.9978784%" y1="12.9929137%" x2="49.9978784%" y2="82.0545598%" id="linearGradient-1">
            <stop stop-color="#74C2E8" offset="0%"></stop>
            <stop stop-color="#3DA9DE" offset="100%"></stop>
        </linearGradient>
    </defs>
    <g id="Page-1" stroke="none" stroke-width="1" fill="none" fill-rule="evenodd" sketch:type="MSPage">
        <g id="sw-logo-20140401" sketch:type="MSLayerGroup">
            <g id="Group" transform="translate(0.000000, 2.000000)" fill="#445258" sketch:type="MSShapeGroup">
                <path d="M59.274,33.029 L59.274,7.271 L63.049,7.271 L63.049,9.856 L63.777,9.11 C65.208,7.643 67.129,6.835 69.188,6.835 C73.951,6.835 77.682,10.936 77.682,16.172 C77.682,21.448 73.952,25.581 69.188,25.581 C67.225,25.581 65.378,24.835 63.988,23.479 L63.269,22.78 L63.269,29.599 C63.269,29.599 63.246,30.912 62.2,32.002 C61.049,33.208 59.274,33.029 59.274,33.029 L59.274,33.029 L59.274,33.029 Z M68.497,10.466 C65.615,10.466 63.269,13.026 63.269,16.171 C63.269,19.356 65.614,21.948 68.497,21.948 C71.429,21.948 73.725,19.411 73.725,16.171 C73.726,12.971 71.429,10.466 68.497,10.466 L68.497,10.466 L68.497,10.466 Z" id="Shape"></path>
                <path d="M135.211,25.395 C131.579,25.395 127.917,23.618 127.917,19.649 C127.917,16.318 130.062,14.77 135.322,14.308 C138.623,14.001 141.147,13.612 141.147,11.66 C141.147,10.318 139.579,9.418 137.243,9.418 C135.496,9.418 133.419,10.174 132.758,11.821 L128.699,11.821 C129.407,8.533 132.724,6.359 137.133,6.359 C144.449,6.359 145.019,11.011 145.019,12.437 L145.019,22.348 C145.019,23.107 145.207,24.205 145.424,25.025 C145.424,25.025 143.588,25.434 142.475,24.598 C141.364,23.763 141.34,22.746 141.34,22.746 L140.739,23.383 C139.479,24.717 137.62,25.395 135.211,25.395 L135.211,25.395 L135.211,25.395 Z M140.671,15.92 C139.812,16.474 138.443,16.831 136.235,17.075 C134.021,17.315 131.972,17.798 131.972,19.685 C131.972,21.027 133.436,21.928 135.617,21.928 C139.197,21.928 141.332,20.481 141.332,18.057 L141.332,15.493 L140.671,15.92 L140.671,15.92 Z" id="Shape"></path>
                <path d="M45.574,25.395 C41.942,25.395 38.278,23.618 38.278,19.649 C38.278,16.318 40.424,14.77 45.683,14.308 C48.986,14.001 51.51,13.612 51.51,11.66 C51.51,10.318 49.941,9.418 47.606,9.418 C45.858,9.418 43.783,10.174 43.12,11.821 L39.06,11.821 C39.768,8.533 43.085,6.359 47.495,6.359 C54.811,6.359 55.381,11.011 55.381,12.437 L55.381,22.348 C55.381,23.107 55.569,24.205 55.787,25.025 C55.787,25.025 53.951,25.434 52.838,24.598 C51.724,23.763 51.702,22.746 51.702,22.746 L51.1,23.383 C49.842,24.717 47.982,25.395 45.574,25.395 L45.574,25.395 L45.574,25.395 Z M51.033,15.92 C50.175,16.474 48.806,16.831 46.597,17.075 C44.384,17.315 42.335,17.798 42.335,19.685 C42.335,21.027 43.8,21.928 45.98,21.928 C49.56,21.928 51.695,20.481 51.695,18.057 L51.695,15.493 L51.033,15.92 L51.033,15.92 Z" id="Shape"></path>
                <path d="M89.755,25.469 C84.611,25.469 80.427,21.199 80.427,15.95 C80.427,10.661 84.611,6.358 89.755,6.358 C92.414,6.358 94.8,7.37 96.474,9.207 C98.316,11.231 99.164,14.06 98.932,17.407 L84.388,17.407 L84.534,17.948 C85.215,20.471 87.2,22.04 89.717,22.04 C91.557,22.04 93.135,21.216 93.994,19.82 L98.369,19.82 C97.117,23.37 93.939,25.469 89.755,25.469 L89.755,25.469 L89.755,25.469 Z M89.718,9.789 C87.337,9.789 85.38,11.292 84.614,13.713 L84.437,14.273 L95.047,14.273 L94.903,13.731 C94.263,11.335 92.229,9.789 89.718,9.789 L89.718,9.789 L89.718,9.789 Z" id="Shape"></path>
                <path d="M173.848,25.774 C170.144,25.741 167.171,24.463 165.666,23.233 L168.862,20.754 C169.91,21.483 171.398,21.99 173.085,22.103 C173.337,22.12 173.573,22.127 173.797,22.127 C176.146,22.127 176.887,21.224 177.12,20.685 C177.349,20.153 177.271,19.527 176.932,19.163 C176.282,18.474 175.375,18.347 173.734,18.116 L173.175,18.038 C167.245,17.189 166.361,14.176 166.361,12.456 C166.361,11.428 166.736,7.986 171.587,6.813 C172.395,6.617 173.231,6.519 174.069,6.519 C177.375,6.519 180.307,8.249 181.499,9.216 L178.377,11.592 C177.282,10.822 175.439,10.135 173.81,10.135 C172.649,10.135 171.769,10.505 171.263,11.208 C170.97,11.615 170.909,12.102 171.097,12.541 C171.457,13.385 172.616,13.949 174.537,14.221 C176.293,14.467 178.287,14.852 179.751,15.827 C181.201,16.791 181.955,18.452 181.819,20.379 C181.7,22.069 179.555,25.775 173.962,25.775 L173.848,25.774 L173.848,25.774 Z" id="Shape"></path>
                <path d="M8.248,25.774 C4.543,25.741 1.571,24.463 0.066,23.233 L3.262,20.754 C4.31,21.483 5.799,21.99 7.485,22.103 C7.736,22.12 7.974,22.127 8.195,22.127 C10.544,22.127 11.286,21.224 11.519,20.685 C11.748,20.153 11.669,19.527 11.33,19.163 C10.68,18.474 9.774,18.347 8.132,18.116 L7.574,18.038 C1.645,17.189 0.759,14.176 0.759,12.456 C0.759,11.428 1.135,7.986 5.985,6.813 C6.794,6.617 7.629,6.519 8.469,6.519 C11.774,6.519 14.706,8.249 15.898,9.216 L12.776,11.592 C11.681,10.822 9.837,10.135 8.208,10.135 C7.047,10.135 6.166,10.505 5.661,11.208 C5.369,11.615 5.308,12.102 5.496,12.541 C5.855,13.385 7.014,13.949 8.935,14.221 C10.691,14.467 12.685,14.852 14.149,15.827 C15.599,16.791 16.353,18.452 16.218,20.379 C16.099,22.069 13.955,25.775 8.36,25.775 L8.248,25.774 L8.248,25.774 Z" id="Shape"></path>
                <path d="M123.053,6.837 L119.216,18.84 L115.375,6.834 L111.389,6.834 L111.389,6.837 L107.552,18.84 L103.711,6.834 L99.725,6.834 L105.557,25.07 L105.559,25.07 L105.557,25.075 L109.543,25.075 L113.382,13.069 L117.219,25.07 L117.221,25.07 L117.219,25.075 L121.207,25.075 L127.039,6.837 L123.053,6.837 L123.053,6.837 Z" id="Shape"></path>
                <path d="M31.393,25.026 L31.393,14.323 C31.393,13.372 31.106,10.268 27.415,10.268 C24.984,10.268 23.288,11.936 23.288,14.323 L23.288,25.026 L19.233,25.026 L19.233,-0.008 C19.233,-0.008 20.777,-0.111 22.081,1.167 C23.385,2.445 23.289,4.039 23.289,4.039 L23.289,8.272 L23.978,7.751 C25.179,6.841 26.598,6.359 28.081,6.359 C32.466,6.359 35.412,9.559 35.412,14.323 L35.412,25.026 L31.393,25.026 L31.393,25.026 Z" id="Shape"></path>
                <path d="M160.608,6.834 L155.863,20.019 L150.789,6.834 L146.536,6.834 L154.019,25.145 L152.943,28.129 C152.943,28.129 152.27,29.59 153.122,31.307 C153.921,32.912 155.145,33.239 155.145,33.239 L164.872,6.835 L160.608,6.834 L160.608,6.834 Z" id="Shape"></path>
            </g>
            <path d="M190.505,21.832 L190.465,21.737 C190.283,16.085 189.557,14.271 187.472,14.271 C186.235,14.271 184.44,14.95 181.47,16.542 L181.385,16.587 L181.213,16.287 L181.294,16.237 C184.477,14.258 186.597,12.617 186.597,11.041 C186.597,9.465 184.477,7.824 181.294,5.845 L181.215,5.796 L181.386,5.494 L181.47,5.539 C184.483,7.152 186.222,7.81 187.472,7.81 C189.557,7.81 190.284,5.996 190.465,0.343 L190.468,0.246 L190.775,0.248 L190.816,0.343 C190.998,5.996 191.724,7.81 193.809,7.81 C195.044,7.81 196.84,7.131 199.812,5.539 L199.896,5.494 L200.055,5.77 L199.988,5.845 C196.806,7.824 194.686,9.464 194.686,11.041 C194.686,12.617 196.805,14.258 199.987,16.237 L200.067,16.287 L199.895,16.588 L199.811,16.544 C196.825,14.951 195.03,14.272 193.808,14.272 C191.724,14.272 190.997,16.086 190.816,21.738 L190.813,21.835 L190.641,21.837 L190.505,21.832 L190.505,21.832 Z" id="Shape" fill="url(#linearGradient-1)" sketch:type="MSShapeGroup"></path>
            <path d="M190.505,21.832 L190.465,21.737 C190.283,16.085 189.557,14.271 187.472,14.271 C186.235,14.271 184.44,14.95 181.47,16.542 L181.385,16.587 L181.213,16.287 L181.294,16.237 C184.477,14.258 186.597,12.617 186.597,11.041 C186.597,9.465 184.477,7.824 181.294,5.845 L181.215,5.796 L181.386,5.494 L181.47,5.539 C184.483,7.152 186.222,7.81 187.472,7.81 C189.557,7.81 190.284,5.996 190.465,0.343 L190.468,0.246 L190.775,0.248 L190.816,0.343 C190.998,5.996 191.724,7.81 193.809,7.81 C195.044,7.81 196.84,7.131 199.812,5.539 L199.896,5.494 L200.055,5.77 L199.988,5.845 C196.806,7.824 194.686,9.464 194.686,11.041 C194.686,12.617 196.805,14.258 199.987,16.237 L200.067,16.287 L199.895,16.588 L199.811,16.544 C196.825,14.951 195.03,14.272 193.808,14.272 C191.724,14.272 190.997,16.086 190.816,21.738 L190.813,21.835 L190.641,21.837 L190.505,21.832 L190.505,21.832 Z" id="Shape" fill="#4FC9FF" sketch:type="MSShapeGroup"></path>
        </g>
    </g>
</svg>